<svg id="Capa_1" data-name="Capa 1" xmlns="http://www.w3.org/2000/svg" viewBox="0 0 10 10"><defs><style>.cls-1{fill:#fff;fill-rule:evenodd;}</style></defs><title>correoicon</title><path class="cls-1" d="M1.08,4.88a3.92,3.92,0,0,1,7.83,0,3.88,3.88,0,0,1-3.76,4A3.89,3.89,0,0,1,1.08,4.88Zm4.17.68c.05.33.16.44.44.47a1.29,1.29,0,0,0,.86-.24A1.67,1.67,0,0,0,6.5,3.15a2.24,2.24,0,0,0-1.15-.4,2.37,2.37,0,0,0-1.49.33,2.18,2.18,0,0,0-1,1.84,2.24,2.24,0,0,0,.13.84,1.68,1.68,0,0,0,.62.88,2.4,2.4,0,0,0,1,.38,2.39,2.39,0,0,0,1.22-.1.26.26,0,0,0,.12-.34.24.24,0,0,0-.3-.12,1.73,1.73,0,0,1-.46.08,2.48,2.48,0,0,1-.67-.07,1.37,1.37,0,0,1-.84-.61,1.82,1.82,0,0,1-.2-1.18,1.6,1.6,0,0,1,.79-1.21,1.88,1.88,0,0,1,1.36-.22,1.29,1.29,0,0,1,.93,1.92A.53.53,0,0,1,6,5.51c-.1,0-.15,0-.15-.15a2.35,2.35,0,0,1,0-.5c.06-.3.11-.6.16-.89,0-.05,0-.13,0-.14s-.25-.06-.34,0-.11.06-.19,0A.91.91,0,0,0,4.51,4a1.74,1.74,0,0,0-.64,1.3.68.68,0,0,0,.26.63.74.74,0,0,0,1-.2C5.14,5.65,5.17,5.59,5.25,5.55Z"/><path class="cls-1" d="M4.73,5.5c-.18,0-.21-.11-.25-.23A.88.88,0,0,1,5,4.3a.47.47,0,0,1,.18,0c.17,0,.22.05.2.25A1.18,1.18,0,0,1,5,5.43.28.28,0,0,1,4.73,5.5Z"/></svg>