<svg id="Capa_1" data-name="Capa 1" xmlns="http://www.w3.org/2000/svg" viewBox="0 0 10 10"><defs><style>.cls-1{fill:#fff;}.cls-1,.cls-2{fill-rule:evenodd;}.cls-2{fill:#090609;}</style></defs><title>iconwsp</title><path class="cls-1" d="M1,9l.33-1L1.7,6.94a.19.19,0,0,0,0-.17,3.69,3.69,0,0,1-.5-1.84,3.79,3.79,0,0,1,1-2.6A3.8,3.8,0,0,1,4.29,1.09,3.84,3.84,0,0,1,7,1.52,3.86,3.86,0,0,1,9,5.44,3.88,3.88,0,0,1,6,8.65a3.83,3.83,0,0,1-2.61-.29.36.36,0,0,0-.29,0L1.11,9Z"/><path class="cls-2" d="M3.61,2.79h.14a.21.21,0,0,1,.19.12c.16.31.29.65.42,1a.35.35,0,0,1-.09.33,3.14,3.14,0,0,1-.21.26.11.11,0,0,0,0,.15A2.9,2.9,0,0,0,5.46,5.84a.12.12,0,0,0,.16,0l.31-.39a.22.22,0,0,1,.3-.09c.33.12.64.29.95.45a.22.22,0,0,1,.1.22,1,1,0,0,1-.86,1,1.18,1.18,0,0,1-.7,0,4.53,4.53,0,0,1-1.31-.58A4.92,4.92,0,0,1,2.87,4.53a1.32,1.32,0,0,1,0-1.31A1.72,1.72,0,0,1,3.07,3,.54.54,0,0,1,3.61,2.79Z"/></svg>