<svg id="Capa_1" data-name="Capa 1" xmlns="http://www.w3.org/2000/svg" viewBox="0 0 10 10"><defs><style>.cls-1{fill:#fff;fill-rule:evenodd;}</style></defs><title>iconfb</title><path class="cls-1" d="M5,9.53H2a1.3,1.3,0,0,1-.41-.13,1.52,1.52,0,0,1-.79-1,.84.84,0,0,0,0-.13v-6A1.31,1.31,0,0,1,1,1.54,1.46,1.46,0,0,1,1.86,1L2,1H8a1.29,1.29,0,0,1,.73.31,1.47,1.47,0,0,1,.52.82.56.56,0,0,0,0,.11V8.3a1.28,1.28,0,0,1-.14.44,1.52,1.52,0,0,1-1,.77L8,9.53H6.32a.12.12,0,0,1,0-.09q0-1.51,0-3a.38.38,0,0,1,0-.07.07.07,0,0,1,.06-.06H7.62c.11,0,.11,0,.11-.12q0-.58,0-1.16c0-.11,0-.11-.11-.11H6.4c-.07,0-.1,0-.1-.1a4.22,4.22,0,0,1,0-.57A.39.39,0,0,1,6.44,4a.27.27,0,0,1,.2-.06h1c.09,0,.1,0,.1-.1,0-.25,0-.49,0-.74s0-.3,0-.46,0-.08-.08-.08H6.59a1.49,1.49,0,0,0-1.19.65A1.9,1.9,0,0,0,5,4.35c0,.15,0,.3,0,.44s0,.11-.11.11H4.08c-.1,0-.1,0-.1.1Q4,5.6,4,6.18c0,.1,0,.11.11.11h.81c.11,0,.13,0,.13.13q0,1.5,0,3A.14.14,0,0,1,5,9.53Z"/></svg>