<svg id="Capa_1" data-name="Capa 1" xmlns="http://www.w3.org/2000/svg" viewBox="0 0 54 17"><defs><style>.cls-1{fill:#e60000;}.cls-1,.cls-2,.cls-3,.cls-4,.cls-6{fill-rule:evenodd;}.cls-2{fill:#fcfcfc;}.cls-3,.cls-4,.cls-7{fill:#fff;}.cls-4{stroke:#fff;stroke-miterlimit:10;stroke-width:0.5px;}.cls-5{fill:#f7f5f4;}.cls-8{fill:#0a0609;}</style></defs><title>contactologosvvg</title><path class="cls-1" d="M51.83,10.14l-.06-.49a5.77,5.77,0,0,0-5-5.09,5.7,5.7,0,0,0-6,3.69.74.74,0,0,1-.85.56q-11.08,0-22.15,0a.71.71,0,0,1-.8-.55A5.58,5.58,0,0,0,10.83,4.7a5.67,5.67,0,0,0-4.77,5.48,14.84,14.84,0,0,0,.17,1.68,11.44,11.44,0,0,1-4.31-.45A1.68,1.68,0,0,1,1,9.2,4.86,4.86,0,0,1,2.8,6.73a17.81,17.81,0,0,1,6.28-3.1,51.64,51.64,0,0,1,11-2.3,23.16,23.16,0,0,1,4,.06c1.28.12,1.66.6,1.93,1.85A17.93,17.93,0,0,0,26.79,6a2.59,2.59,0,0,0,2.9,1.79,3.14,3.14,0,0,0,2.69-2.21.45.45,0,0,0-.14-.39c-.35-.25-.72-.45-1.14-.7a4.67,4.67,0,0,1-.56.85c-.15.14-.43.15-.65.22,0-.23-.18-.51-.1-.68.47-.87,1-1.72,1.52-2.54A.74.74,0,0,1,32,2.09c.32.13.25.44.08.71s-.32.54-.5.86l1.29.76c0-.93.05-1.7.1-2.47,0-.32.08-.64.13-1l.91.3a.34.34,0,0,1,.14.09,3.34,3.34,0,0,0,2.92,1c1.81-.06,3.62-.07,5.42,0a16.39,16.39,0,0,1,9.28,3.16A6.79,6.79,0,0,1,53.14,7,2,2,0,0,1,51.83,10.14ZM19.14,4.68a2.56,2.56,0,0,0,2.55,2.51,2.61,2.61,0,0,0,2.55-2.59,2.62,2.62,0,0,0-2.57-2.52A2.57,2.57,0,0,0,19.14,4.68ZM38,3.45c-.19.06-.26.06-.29.1-.47.44-1,.88-1.41,1.33a.34.34,0,0,0,0,.34c.1.07.32.12.39.06A19.2,19.2,0,0,0,38.16,4C38.23,3.89,38.09,3.63,38,3.45Zm-1.88,0a.74.74,0,0,0-.23.08c-.46.43-.92.85-1.36,1.3a.39.39,0,0,0,0,.37.5.5,0,0,0,.43,0c.45-.38.88-.79,1.29-1.21a.43.43,0,0,0,.07-.35C36.37,3.6,36.25,3.54,36.17,3.48Zm4,1.88c.08,0,.12,0,.15,0,.49-.45,1-.9,1.45-1.37a.34.34,0,0,0,0-.33c-.1-.07-.32-.11-.39,0-.48.41-.93.85-1.38,1.29a.4.4,0,0,0,0,.35C39.94,5.28,40.07,5.31,40.14,5.35ZM40,3.82c-.06-.1-.1-.24-.17-.26a.51.51,0,0,0-.4.05,14.69,14.69,0,0,0-1.18,1.11c-.11.11-.09.34-.13.51.18,0,.41,0,.53-.06.41-.33.77-.7,1.15-1.06A1.82,1.82,0,0,0,40,3.82Z"/><path class="cls-2" d="M41.46,10.24A4.62,4.62,0,1,1,46,14.89,4.6,4.6,0,0,1,41.46,10.24Z"/><path class="cls-3" d="M40.5,11.82H17.18c.06-1,.06-1,1-1H39.57C40.46,10.82,40.46,10.83,40.5,11.82Z"/><path class="cls-3" d="M40.36,9.23c.11.51-.22.46-.49.46h-22c-.28,0-.68.13-.6-.45Z"/><path class="cls-4" d="M19.14,4.68a2.57,2.57,0,0,1,2.53-2.59,2.62,2.62,0,0,1,2.57,2.52,2.61,2.61,0,0,1-2.55,2.59A2.56,2.56,0,0,1,19.14,4.68ZM22.69,4c-.13-.84-.34-1-1-1s-.94.25-1,.84a8.8,8.8,0,0,0,0,1.73c0,.26.3.65.51.68.38.06,1,0,1.15-.21a2.52,2.52,0,0,0,.13-1.53c0-.22-.57-.33-.88-.49l-.12.13,0-.43Z"/><path class="cls-3" d="M38,3.45c0,.18.18.44.12.5a19.2,19.2,0,0,1-1.42,1.32c-.07.06-.29,0-.39-.06a.34.34,0,0,1,0-.34c.46-.46.93-.89,1.41-1.33C37.79,3.51,37.85,3.51,38,3.45Z"/><path class="cls-3" d="M36.17,3.48c.08.07.21.12.22.21a.43.43,0,0,1-.07.35c-.42.42-.84.83-1.29,1.21a.5.5,0,0,1-.43,0,.39.39,0,0,1,0-.37c.44-.45.9-.87,1.36-1.3A.74.74,0,0,1,36.17,3.48Z"/><path class="cls-3" d="M40.14,5.35c-.06,0-.2-.07-.23-.15a.4.4,0,0,1,0-.35c.44-.45.9-.88,1.38-1.29.07-.06.29,0,.39,0a.34.34,0,0,1,0,.33c-.47.47-1,.92-1.45,1.37C40.26,5.33,40.22,5.33,40.14,5.35Z"/><path class="cls-3" d="M40,3.82a1.82,1.82,0,0,1-.2.29c-.38.36-.74.74-1.15,1.06-.12.09-.35,0-.53.06,0-.17,0-.4.13-.51a14.69,14.69,0,0,1,1.18-1.11.51.51,0,0,1,.4-.05C39.93,3.58,40,3.72,40,3.82Z"/><path class="cls-5" d="M18.08,16v-2.5h.52V16Z"/><path class="cls-5" d="M20.33,16l-1.07-1.68V16h-.49v-2.5h.55l1,1.61V13.52h.49V16Z"/><path class="cls-5" d="M21,16v-2.5h1a1.27,1.27,0,0,1,.47.08,1,1,0,0,1,.37.24,1.13,1.13,0,0,1,.24.38,1.42,1.42,0,0,1,.09.51,1.67,1.67,0,0,1-.08.52,1.17,1.17,0,0,1-.22.4,1,1,0,0,1-.34.26A1,1,0,0,1,22,16Zm.94-.43a.57.57,0,0,0,.5-.21,1.09,1.09,0,0,0,.15-.64,1.52,1.52,0,0,0,0-.36.58.58,0,0,0-.12-.25A.49.49,0,0,0,22.2,14a1,1,0,0,0-.32,0h-.39v1.64Z"/><path class="cls-5" d="M23.25,16v-2.5h.52V16Z"/><path class="cls-5" d="M25.68,16l-.16-.52H24.6l-.18.52h-.55l.89-2.5h.61l.88,2.5Zm-.62-1.94h0l-.32,1h.64Z"/><path class="cls-5" d="M27.91,16l-1.07-1.68V16h-.49v-2.5h.55l1,1.61V13.52h.49V16Z"/><path class="cls-5" d="M30.3,16l-.16-.52h-.92L29,16h-.55l.89-2.5H30l.88,2.5Zm-.62-1.94h0l-.32,1H30Z"/><path class="cls-5" d="M31,16v-2.5h1.1a.85.85,0,0,1,.33.06.75.75,0,0,1,.25.17.78.78,0,0,1,.16.26.87.87,0,0,1,.06.32.86.86,0,0,1-.06.31.7.7,0,0,1-.16.25.75.75,0,0,1-.25.16.88.88,0,0,1-.33.06h-.58V16Zm1-1.33a.44.44,0,0,0,.33-.1.37.37,0,0,0,.1-.27.36.36,0,0,0-.1-.26A.44.44,0,0,0,32,14h-.5v.74Z"/><path class="cls-5" d="M34.13,16.11a1.15,1.15,0,0,1-.89-.34,1.39,1.39,0,0,1-.31-1,1.9,1.9,0,0,1,.08-.57,1.17,1.17,0,0,1,.23-.43,1,1,0,0,1,.38-.27,1.46,1.46,0,0,1,1,0,1,1,0,0,1,.38.27,1.21,1.21,0,0,1,.23.43,1.93,1.93,0,0,1,.08.57,1.38,1.38,0,0,1-.31,1A1.16,1.16,0,0,1,34.13,16.11Zm0-.45a.69.69,0,0,0,.26-.05.58.58,0,0,0,.22-.15.74.74,0,0,0,.15-.27,1.25,1.25,0,0,0,.05-.38,1.11,1.11,0,0,0-.17-.67.59.59,0,0,0-.5-.23.6.6,0,0,0-.51.23,1.09,1.09,0,0,0-.18.67,1,1,0,0,0,.18.65A.64.64,0,0,0,34.13,15.66Z"/><path class="cls-5" d="M35.47,16v-2.5H36v2h1.24V16Z"/><path class="cls-5" d="M37.33,16v-2.5h.52V16Z"/><path class="cls-5" d="M39.44,14.26a.39.39,0,0,0-.14-.29.58.58,0,0,0-.36-.09q-.45,0-.44.31a.22.22,0,0,0,.09.18.77.77,0,0,0,.3.12l.42.11.32.11.16.09a.48.48,0,0,1,.12.13.63.63,0,0,1,.08.18,1,1,0,0,1,0,.26.66.66,0,0,1-.08.32.72.72,0,0,1-.2.24.94.94,0,0,1-.3.15,1.29,1.29,0,0,1-.37.05,1.34,1.34,0,0,1-.82-.21.78.78,0,0,1-.29-.63h.5a.37.37,0,0,0,.16.3.64.64,0,0,0,.38.11.65.65,0,0,0,.38-.09.28.28,0,0,0,.13-.24.4.4,0,0,0,0-.11.21.21,0,0,0-.06-.09l-.12-.07-.2-.06-.5-.12a1.25,1.25,0,0,1-.34-.15.58.58,0,0,1-.2-.22.77.77,0,0,1-.06-.34.75.75,0,0,1,.06-.29.62.62,0,0,1,.17-.24.87.87,0,0,1,.29-.16,1.26,1.26,0,0,1,.41-.06,1.32,1.32,0,0,1,.41.06.94.94,0,0,1,.31.17.74.74,0,0,1,.2.26.87.87,0,0,1,.08.34Z"/><path class="cls-6" d="M49,10.2A2.86,2.86,0,1,1,46,7.36,2.87,2.87,0,0,1,49,10.2Z"/><polygon class="cls-7" points="23.02 3.01 23.02 5.78 21.8 6.67 20.7 6.22 20.36 3.9 20.7 3.12 21.8 2.56 23.02 3.01"/><path class="cls-8" d="M21,4.69a.65.65,0,0,1-.29-.2.51.51,0,0,1-.12-.34.65.65,0,0,1,.28-.54,1.28,1.28,0,0,1,.78-.21,1.34,1.34,0,0,1,.8.2.62.62,0,0,1,.28.53.58.58,0,0,1-.4.56.65.65,0,0,1,.34.21.6.6,0,0,1,.14.4.68.68,0,0,1-.28.57,1.43,1.43,0,0,1-.87.21,1.33,1.33,0,0,1-.85-.22.68.68,0,0,1-.27-.56A.63.63,0,0,1,21,4.69Zm.31.57a.31.31,0,0,0,.1.25.37.37,0,0,0,.26.09A.32.32,0,0,0,22,5.25.33.33,0,0,0,21.94,5a.39.39,0,0,0-.51,0A.34.34,0,0,0,21.34,5.26Zm0-1.08a.27.27,0,0,0,.08.2.3.3,0,0,0,.23.08.33.33,0,0,0,.21-.07A.26.26,0,0,0,22,4.17.28.28,0,0,0,21.91,4a.3.3,0,0,0-.22-.08.31.31,0,0,0-.22.08A.27.27,0,0,0,21.38,4.18Z"/><path class="cls-2" d="M7.25,10.33A4.62,4.62,0,1,1,11.78,15,4.6,4.6,0,0,1,7.25,10.33Z"/><path class="cls-6" d="M14.74,10.3a2.86,2.86,0,1,1-2.91-2.84A2.87,2.87,0,0,1,14.74,10.3Z"/></svg>