<svg xmlns="http://www.w3.org/2000/svg" viewBox="0 0 170.6 170.61"><defs><style>.cls-1{fill:#eee8df;}.cls-2{fill:#090609;}.cls-10,.cls-2,.cls-3,.cls-4,.cls-5,.cls-6,.cls-7,.cls-8,.cls-9{fill-rule:evenodd;}.cls-3{fill:#e8efde;}.cls-4{fill:#feb312;}.cls-5{fill:#fecd2d;}.cls-6{fill:#2c222b;}.cls-7{fill:#49b7b5;}.cls-8{fill:#f7f5f4;}.cls-9{fill:#e60000;}.cls-10{fill:#fff;}</style></defs><title>Recurso 2ldpi</title><g id="Capa_2" data-name="Capa 2"><g id="Capa_1-2" data-name="Capa 1"><ellipse class="cls-1" cx="85.3" cy="85.31" rx="85.3" ry="85.31"/><path class="cls-2" d="M147.68,120.36a10.8,10.8,0,0,1-2.08,4.77c-.28,0-.59,0-.72.3-.23.62-.5.93-1.13.34-.36-.33-.73.21-.62.31.84.74.26,1.28-.17,1.86,0,0,0,.12,0,.19-2.27,2.12-5.12,3.32-7.73,4.91-2.25,1.39-4.59,2.64-6.9,3.94l-2.49,1.41c-1.23,0-2.11.92-3.21,1.28-.22.07-.15.39-.15.61a27.83,27.83,0,0,1-3.84,2.29c-.67,0-1.38-.15-1.7.73,0,.14-.28.25-.45.32-1.4.49-2.6,1.37-3.93,2-.33.16-.32.42-.34.7l0,.06a1.72,1.72,0,0,0-.65.09q-2.9,1.72-5.77,3.48a9.4,9.4,0,0,1-1.2.71,26.37,26.37,0,0,0-2.52,1.32c-1.57.89-3.11,1.82-4.67,2.73-.49-.27-1-.59-1.38.13a2.7,2.7,0,0,0-.5,1.17c-1.05.58-2.07,1.24-3.16,1.75A15.92,15.92,0,0,1,82,159.29a6.43,6.43,0,0,0-.65-.06,16,16,0,0,0-2.5-.82c-.32-.66-1-.73-1.57-1.06-.31-.19-.69-.28-.47-.82.3-.73-.31-.79-.68-.61a3,3,0,0,1-1.44.12h-.23c-.2-.38-.4-.77-.63-1.13s-.41-.63-.82-.48c-.89.32-1.46-.3-2-.71a5.11,5.11,0,0,0-2.7-1.27c-1.6-.78-3.08-1.74-4.61-2.65-.24-.15-.49-.28-.73-.42,0-.37-.05-.69-.53-.72-.72,0-1.13-.63-1.65-1-.95-.67-1.82-1.39-3.07-1.3-.73-.94-1.86-1.23-2.84-1.76q-3.89-2.16-7.73-4.38c-2.1-1.22-4.27-2.33-6.29-3.66-2.46-1.6-5.14-2.81-7.63-4.37A59.93,59.93,0,0,1,27.86,129a12,12,0,0,1-2.08-1.83c0-.37.28-.42.53-.56a.52.52,0,0,0,.16-.74c-.23-.38-.42,0-.56.14a1.05,1.05,0,0,1-.85.32c-.23-.41-.69-.66-.81-1.15.21-.8-.39-1.26-.73-1.84a20.06,20.06,0,0,1-1.89-5,16.51,16.51,0,0,1-.32-3.67q0-26.17,0-52.33a16.71,16.71,0,0,1,3-10.13,5.79,5.79,0,0,1,1.5-1.77c.38-.09.66-.55,1.17-.21.3.2.34-.12.27-.34a3.67,3.67,0,0,0-.3-.56.71.71,0,0,0,.43-.4,1.34,1.34,0,0,0,.91-.38,14.47,14.47,0,0,1,2.46-1.48,9,9,0,0,0,2.66-1.87l8.1-4.81a1.49,1.49,0,0,1,.82-.19c.25-.09.49,0,.79-.24a12,12,0,0,1,2.86-1.6,2.39,2.39,0,0,0,1.45-1.19h0a2.83,2.83,0,0,0,2.66-1.5l.72-.41a.36.36,0,0,0,.41-.33l.2,0c.69.25,1.05,0,1.14-.71a.24.24,0,0,1,.17,0,.37.37,0,0,0,.4-.34l0,0a3.74,3.74,0,0,0,3-1.56C58.06,31,60,29.87,62,28.77c.4-.22.71-.61,1.17-.72.27,0,.52,0,.58-.33l0,0c.34,0,.74.1,1-.15a13.88,13.88,0,0,1,3-1.69.77.77,0,0,0,.49-.8h0c1.09,0,1.8-.74,2.66-1.22.6-.33,1.25-.86,1.83-.81s.94-.14,1.14-.62a1.13,1.13,0,0,1,1.16-.78c.18,0,.45,0,.53-.09.67-.86,1.72-1,2.61-1.46a1,1,0,0,0,.66-1,17.58,17.58,0,0,1,7-1.16,13.73,13.73,0,0,1,5,1.18c1.58.79,3.08,1.75,4.66,2.56a.34.34,0,0,0,.41.34h0c-.07.66.18,1.26.88,1.08a2.09,2.09,0,0,1,2,.71A8.56,8.56,0,0,0,101.59,25a13.87,13.87,0,0,1,2.32,1.4c2.47,1.47,4.93,3,7.43,4.4,1.72,1,3.49,1.91,5.23,2.87a7,7,0,0,1,.62.42.77.77,0,0,0,.58.67,3.09,3.09,0,0,1,1.47.75,17,17,0,0,0,1.68,1c1.93,1.12,3.9,2.2,5.8,3.38.71.44,1.48,1.18,2.51,1l4.23,2.36c.2.67,2.08,1.79,3,1.8.15.19.22.45.48.55a26.14,26.14,0,0,1,6,3.68c-.05.35-.8.83,0,1s.61.36.42.83a.5.5,0,0,0,.21.66.32.32,0,0,0,.47-.17c.32-.76.62-.18.73.08a.71.71,0,0,0,.84.56h0c.27,1.58,1.39,2.82,1.72,4.42a17.48,17.48,0,0,1,.58,2.89c0,.91,0,1.81,0,2.71-.05,17.59,0,35.19-.06,52.77,0,.54.52,1,.3,1.43a6,6,0,0,0-.29,2.4c0,.33.1.73-.44.87q-.09-30.26-.06-60.51l-.26,0a33.41,33.41,0,0,0-.36,3.43q0,25.64,0,51.28a3.72,3.72,0,0,0,.3,2.3.6.6,0,0,1-.07.63c-.45.77-.18,1.6-.22,2.41,0,.43.31.5.69.5A2,2,0,0,1,147.68,120.36ZM116.07,99.93a.17.17,0,0,0,.12,0l.31-.15s.08-.1.13-.15c.23-.47.47-.94.71-1.4a1,1,0,0,1,.16.23c.37,1.49.37,1.49,1.9,1.49.32,0,.64,0,.94,0a.51.51,0,0,0,.53-.32,1.6,1.6,0,0,0-1.37-2.09,4,4,0,0,0-2,.33c.09-.23.17-.47.26-.7,4-10.37,3.55-20.51-1.69-30.34A35.43,35.43,0,0,0,52.8,98.64a1.89,1.89,0,0,0,2,1.29c7.83,0,15.67,0,23.5,0,.43,0,.86-.14,1.07.56a5.77,5.77,0,0,0,11.14,0c.15-.48.38-.55.79-.55,1.3,0,2.59,0,3.89,0l20.08,0c-.08.77-.67.54-1.09.54h-22a1.58,1.58,0,0,0-1.13.2,1.56,1.56,0,0,0,1,.17q11.09,0,22.17,0a20.46,20.46,0,0,0,2.21-.23c0-.37-.43-.39-.41-.68Zm7.37,26.5c-.9-1.31-1.78-2.63-2.7-3.93-.09-.14-.32-.19-.48-.29a1,1,0,0,0,.52-1.27c-.2-.55-.66-.62-1.17-.6-.25,0-.51,0-.75,0q-14.45,0-28.9,0c-.72,0-1-.14-1-.92.06-1.87.09-3.73,0-5.59,0-1,.27-1.17,1.2-1.17,9.32,0,18.64,0,28,0a2.15,2.15,0,0,0,1.93-.92c.7-.94,1.4-1.88,2.07-2.85a44.73,44.73,0,0,0,5.14-10.07,50.53,50.53,0,0,0,2.27-9,.77.77,0,0,0,.11-.69,48.69,48.69,0,0,0-.12-11.43c-2.66-16.75-11.75-28.63-27.2-35.52A42.38,42.38,0,0,0,79.81,39,43.22,43.22,0,0,0,54.53,50.6C43.38,61.11,38.62,74.09,40.36,89.34a43.77,43.77,0,0,0,9.54,22.54,2,2,0,0,0,1.77.84c2.14,0,4.29,0,6.44,0,7.27,0,14.53,0,21.8,0,.87,0,1.12.24,1.08,1.1-.08,1.48,0,3,0,4.46,0,1.77-.34,2.11-2.09,2.11H50.81a6.49,6.49,0,0,0-1,0,.93.93,0,0,0-.16,1.76,2.34,2.34,0,0,0,.93.11H80l.4-.09a3.29,3.29,0,0,0,2.48-3.53c0-2.15,0-4.3,0-6.45a7.27,7.27,0,0,0-7-7.66c-2.06-.08-4.11,0-6.17,0-.64,0-1.15.21-1.15,1s.54,1,1.23,1q2.85,0,5.69,0a5.43,5.43,0,0,1,5.08,3.47c.26.7.22,1-.65.95-6.63,0-13.28,0-19.91,0a17.84,17.84,0,0,1-3.12,0,1,1,0,0,0-.77,0h-.95a20.23,20.23,0,0,0-3.39,0c-.47,0-.61-.42-.82-.71a42.91,42.91,0,0,1-.58-52c8.19-10.83,19.17-16.64,32.74-17.41a39.79,39.79,0,0,1,15.1,2.08l.35.13,1.35.45c0,.51.3.43.61.28a2.67,2.67,0,0,1,.45.11,41.54,41.54,0,0,1,19.15,15.2c8.88,13.05,10.27,27,4.41,41.68A40,40,0,0,1,119,110a2.57,2.57,0,0,1-.75.7l-11,0h-17c-.4,0-1,.19-1-.52a5.21,5.21,0,0,1,5.1-3.75c1.86,0,3.73,0,5.59,0,.69,0,1.34-.1,1.35-.94s-.62-1-1.33-1c-1.92,0-3.86,0-5.78,0a5.54,5.54,0,0,0-2,.24c-3.49,1.5-5.16,3.89-5.11,7.58,0,3,0,6.06,0,9.09a4.61,4.61,0,0,1-1.76,3.71c-.06,0-.12.1-.18.15a6.36,6.36,0,0,1-3.81,1.19c-11.62,0-23.25,0-34.87,0-.25,0-.51,0-.75,0-.59.06-1,.38-.94,1a.9.9,0,0,0,1,.93h77.81c.22,0,.45,0,.66,0,.6,0,.85-.35.92-.86a.87.87,0,0,0-.76-1A6.48,6.48,0,0,0,123.43,126.42ZM24,115.83h.29V100.88c0-.49-.09-1,.51-1.3a.4.4,0,0,0,0-.75c-.53-.21-.48-.6-.48-1,0-1.77,0-3.54,0-5.31q0-14.92,0-29.84c0-.35.17-.78-.29-1.17ZM140.5,79.73c-1,.93-2,1.74-3,2.63-2.47,2.27-4.77,4.7-7.31,6.9-.14.13-.37.2-.21.42s.37,0,.5-.07a19.08,19.08,0,0,0,1.69-1.49c2.44-2.55,5.06-4.9,7.62-7.31A1.83,1.83,0,0,0,140.5,79.73ZM120.17,64a1.08,1.08,0,0,0-.24-1,1,1,0,0,0-1.37-.05c-.57.37-1.37.57-1.37,1.46a.56.56,0,0,0,.21.39c.38.29.81.56,1.29.26S120.09,64.6,120.17,64Zm-14.5-14.82a.89.89,0,0,0-1-.93c-.54,0-1.52,1.32-1.48,2a.9.9,0,0,0,.93.88C104.76,51.15,105.68,50,105.67,49.17ZM99.43,46.3a.93.93,0,0,0-.89-1c-.64-.07-1.4,1-1.37,2a.92.92,0,0,0,.93,1C98.69,48.33,99.4,47.25,99.43,46.3Zm24.51,38.14c.37,0,.76.08,1.1-.14a.86.86,0,0,0,.43-1c-.23-.8-.9-.73-1.53-.74s-1.24,0-1.44.72a.9.9,0,0,0,.43,1.05C123.24,84.5,123.6,84.39,123.94,84.44Zm0,6.89a.89.89,0,0,0,.91-1c0-.68-.81-1.12-2-1.11a.89.89,0,0,0-1,1C121.89,90.9,122.66,91.32,124,91.32ZM70.46,46.2c0,1,.71,2.13,1.34,2.09a.93.93,0,0,0,.94-1c0-.86-.75-2-1.35-2A.88.88,0,0,0,70.46,46.2ZM123,77.76a9.66,9.66,0,0,0,1.32-.27.84.84,0,0,0,.58-1.05c-.11-.47-.4-.82-.93-.77a6.63,6.63,0,0,0-1.39.25.86.86,0,0,0-.65,1C122,77.5,122.36,77.73,123,77.76ZM65,48.26a.82.82,0,0,0-.75.7,2.61,2.61,0,0,0,1.18,2.11.88.88,0,0,0,1.08-.36c.34-.49.09-1-.18-1.4S65.85,48.22,65,48.26ZM109.67,55a2.41,2.41,0,0,0,1.65-2,.87.87,0,0,0-1-.78,2.45,2.45,0,0,0-1.56,1.93A.9.9,0,0,0,109.67,55Zm-58,10.23a.9.9,0,0,0,.88-1c0-.53-1.15-1.49-1.85-1.5a.92.92,0,0,0-1,.9C49.63,64.2,50.86,65.19,51.68,65.2Zm-4.82,24c-.35.06-.75.12-1.15.23a.86.86,0,0,0-.7,1.06.9.9,0,0,0,1,.78,6.64,6.64,0,0,0,1.21-.2A.91.91,0,0,0,48,90C47.87,89.41,47.45,89.22,46.86,89.24Zm7.72-32.15a.94.94,0,0,0-.93,1,2.54,2.54,0,0,0,1.89,1.63.91.91,0,0,0,.86-1A2.62,2.62,0,0,0,54.58,57.09ZM46.88,77.74A.91.91,0,0,0,48,77c.13-.65-.24-1-.84-1.15A7.56,7.56,0,0,0,46,75.67a.95.95,0,0,0-.29,1.87C46.08,77.63,46.46,77.67,46.88,77.74ZM59.45,52.21a.87.87,0,0,0-.89.92c0,.65,1.08,1.86,1.67,1.84a.91.91,0,0,0,.93-.88A2.43,2.43,0,0,0,59.45,52.21Zm33.28-7.33c.08-.77-.13-1.17-.67-1.29a.87.87,0,0,0-1.14.7,5.6,5.6,0,0,0-.22,1.29.87.87,0,0,0,.75.95.88.88,0,0,0,1.09-.66A10,10,0,0,0,92.72,44.87Zm20.77,14a.86.86,0,0,0,.93.86c.63,0,1.84-1.14,1.8-1.72a.89.89,0,0,0-.9-.91A2.39,2.39,0,0,0,113.49,58.86ZM47.76,69a.89.89,0,0,0-1,.93c0,.65,1.07,1.39,2,1.34a.89.89,0,0,0,.91-1C49.73,69.68,48.69,69,47.76,69Zm74.5,0c-1,0-2.1.68-2.1,1.31a.89.89,0,0,0,.92,1c.89,0,2-.7,2-1.32A.88.88,0,0,0,122.26,69ZM121,95.7a.84.84,0,0,0-.86.91c0,.66.85,1.33,1.88,1.37a.89.89,0,0,0,1-1C123.1,96.38,122.16,95.75,121,95.7Zm-72.13,0c-1.06,0-2.12.66-2.11,1.33a.88.88,0,0,0,1,.94c.88,0,1.94-.69,2-1.29A.85.85,0,0,0,48.91,95.72Zm37-51.22c0-.5.1-1-.4-1.38a.92.92,0,0,0-1.28.15,2.65,2.65,0,0,0,.07,2.43,1,1,0,0,0,1.29,0C86,45.41,85.86,44.92,85.9,44.5Zm-8.76.25c.05.25.11.65.21,1.05a.94.94,0,0,0,1.86-.25,5.68,5.68,0,0,0-.23-1.3.87.87,0,0,0-1.08-.68C77.34,43.66,77.1,44,77.14,44.75ZM45.9,84.4c.57,0,1.17.11,1.44-.58A.81.81,0,0,0,47,82.74a2.51,2.51,0,0,0-2.19,0,.8.8,0,0,0-.42,1,.86.86,0,0,0,.73.65A6.53,6.53,0,0,0,45.9,84.4Zm65.34,20.84a2.06,2.06,0,0,0,1.23-1.2A2.2,2.2,0,0,0,111.24,105.25Zm34.59,10.28c-.33.53,0,.8.19,1.06a.15.15,0,0,0,.28-.06C146.43,116.09,146,115.93,145.83,115.53Zm.34,2a.26.26,0,0,0-.15.33c0,.06.14.16.18.14s.15-.18.11-.3S146.22,117.54,146.18,117.49Zm-35.74-11.31c-.05,0-.13-.11-.18-.09a.3.3,0,0,0-.18.18s.07.16.12.16S110.4,106.34,110.44,106.18Z"/><path class="cls-3" d="M33.38,45.18a9,9,0,0,1-2.66,1.87,14.47,14.47,0,0,0-2.46,1.48,1.34,1.34,0,0,1-.91.38c.9-1.19,2.27-1.72,3.48-2.47a5.43,5.43,0,0,0,1.25-.79A1.76,1.76,0,0,1,33.38,45.18Z"/><path class="cls-3" d="M145.6,52.32a.71.71,0,0,1-.84-.56c-.11-.26-.41-.84-.73-.08a.32.32,0,0,1-.47.17.5.5,0,0,1-.21-.66c.19-.48.27-.67-.42-.83s0-.66,0-1l.19-.06.2,0h0c0,.32.24.4.42.56,0,.2.17.24.33.26C144.5,50.9,145.33,51.41,145.6,52.32Z"/><path class="cls-3" d="M136.48,45.11c-.94,0-2.82-1.13-3-1.8C134.49,43.87,135.69,44.14,136.48,45.11Z"/><path class="cls-4" d="M143.34,49.3l-.2,0Z"/><path class="cls-3" d="M147.5,119.82c.48-.14.34-.54.38-.87a6,6,0,0,1,.29-2.4c.22-.44-.3-.89-.3-1.43,0-17.58,0-35.18.06-52.77,0-.9,0-1.8,0-2.71a17.48,17.48,0,0,0-.58-2.89c-.33-1.6-1.45-2.84-1.72-4.42a9.47,9.47,0,0,1,1.86,3.4c0,.06,0,.13,0,.18.3,1,.62,1.92.93,2.89.09-.05.1-.1,0-.13a13.6,13.6,0,0,0,.14,3q0,25.33,0,50.66a45.91,45.91,0,0,1-.22,6.33.12.12,0,0,0,0,.08c.1.09.14,0,.15-.07s-.15,0-.16,0c-.25.55,0,1.29-.67,1.69C147.62,120.18,147.57,120,147.5,119.82Z"/><path class="cls-3" d="M112.22,146.31c0-.28,0-.54.34-.7,1.33-.62,2.53-1.5,3.93-2,.17-.07.4-.18.45-.32.32-.88,1-.74,1.7-.73a28.77,28.77,0,0,1-3.65,2.2C114.11,145.35,113.15,145.8,112.22,146.31Z"/><path class="cls-3" d="M143,128.13c0-.07,0-.15,0-.19.43-.58,1-1.12.17-1.86-.11-.1.26-.63.62-.31.63.59.9.29,1.13-.34.13-.35.43-.29.72-.3A8.2,8.2,0,0,1,143,128.13Z"/><path class="cls-3" d="M122.48,140.28c0-.21-.06-.54.15-.61,1.1-.36,2-1.26,3.21-1.28A12.66,12.66,0,0,1,122.48,140.28Z"/><path class="cls-5" d="M144,50.12c-.16,0-.32-.06-.33-.26A.33.33,0,0,1,144,50.12Z"/><path class="cls-6" d="M129.53,89.86a50.53,50.53,0,0,1-2.27,9A44.73,44.73,0,0,1,122.12,109c-.67,1-1.36,1.91-2.07,2.85a2.15,2.15,0,0,1-1.93.92c-9.32,0-18.64,0-28,0-.93,0-1.25.18-1.2,1.17.09,1.86.07,3.72,0,5.59,0,.78.25.92,1,.92q14.45,0,28.9,0c.25,0,.5,0,.75,0,.5,0,1,0,1.17.6a1,1,0,0,1-.52,1.27c-2.24,0-4.48,0-6.73,0H89.84c-.31,0-.8-.24-.9.23a8.29,8.29,0,0,1-2.13,4h33.87c.92,0,1.83,0,2.75,0a6.48,6.48,0,0,1,.94.07.87.87,0,0,1,.76,1c-.08.5-.32.89-.92.86-.22,0-.45,0-.66,0H45.74a.9.9,0,0,1-1-.93c0-.59.35-.92.94-1,.25,0,.5,0,.75,0,11.62,0,23.25,0,34.87,0a6.36,6.36,0,0,0,3.81-1.19c.06-.05.11-.11.18-.15a4.61,4.61,0,0,0,1.76-3.71c0-3,.06-6.06,0-9.09-.05-3.69,1.62-6.08,5.11-7.58a5.54,5.54,0,0,1,2-.24c1.92,0,3.86,0,5.78,0,.7,0,1.34.16,1.33,1s-.66.94-1.35.94c-1.86,0-3.73,0-5.59,0a5.21,5.21,0,0,0-5.1,3.75c-.5.93.3.65.65.65q13.74,0,27.49,0c.27,0,.57.1.82-.1a2.57,2.57,0,0,0,.75-.7,40,40,0,0,0,5.52-9.44c5.86-14.66,4.47-28.62-4.41-41.68A41.54,41.54,0,0,0,101,43.7a2.67,2.67,0,0,0-.45-.11,1.07,1.07,0,0,0-.61-.28l-1.35-.45-.35-.13a39.79,39.79,0,0,0-15.1-2.08C69.54,41.41,58.56,47.22,50.37,58a42.91,42.91,0,0,0,.58,52c.22.29.35.7.82.71h5.11a17.84,17.84,0,0,0,3.12,0c6.63,0,13.27,0,19.91,0,.87,0,.91-.25.65-.95a5.43,5.43,0,0,0-5.08-3.47q-2.84,0-5.69,0c-.68,0-1.23-.15-1.23-1s.51-1,1.15-1c2.05,0,4.11-.06,6.17,0a7.27,7.27,0,0,1,7,7.66c0,2.15,0,4.3,0,6.45a3.29,3.29,0,0,1-2.48,3.53l-.4.09H50.53a2.34,2.34,0,0,1-.93-.11.93.93,0,0,1,.16-1.76,6.49,6.49,0,0,1,1,0H78.86c1.75,0,2.09-.34,2.09-2.11,0-1.49-.06-3,0-4.46,0-.86-.2-1.1-1.08-1.1-7.26,0-14.53,0-21.8,0-2.15,0-4.3,0-6.44,0a2,2,0,0,1-1.77-.84,43.77,43.77,0,0,1-9.54-22.54c-1.74-15.24,3-28.23,14.17-38.74A43.22,43.22,0,0,1,79.81,39a42.38,42.38,0,0,1,22.51,3.23c15.46,6.89,24.54,18.77,27.2,35.52a48.69,48.69,0,0,1,.12,11.43A.93.93,0,0,0,129.53,89.86Z"/><path class="cls-6" d="M117.32,98.19c-.24.46-.48.93-.71,1.4,0,0-.08.1-.13.15l-.31.15-.07,0,0,.06h-.78l-20.08,0c-1.3,0-2.59,0-3.89,0-.41,0-.64.07-.79.55a5.77,5.77,0,0,1-11.14,0c-.21-.7-.64-.56-1.07-.56-7.84,0-15.67,0-23.5,0a1.89,1.89,0,0,1-2-1.29,35.43,35.43,0,0,1,63.25-31.88c5.24,9.83,5.72,20,1.69,30.34-.09.23-.17.47-.26.7S117.38,98.06,117.32,98.19ZM58.69,71.74a1.51,1.51,0,0,1,1.91.52q7.67,8,15.38,16c1.72,1.8,3.47,3.58,5.18,5.39a.74.74,0,0,0,1.05.2,5.73,5.73,0,0,1,8.26,3.51.76.76,0,0,0,.87.64q11.67,0,23.33,0a.83.83,0,0,0,.87-.56,33.4,33.4,0,0,0,2.67-18.21,31.47,31.47,0,0,0-5.94-15c-8.19-11-19.15-15.63-32.66-13.7-9,1.29-16.25,5.94-21.69,13.27a14.58,14.58,0,0,0-2.62,4.45,29.68,29.68,0,0,0-3.63,11.85,33.1,33.1,0,0,0,2.61,16.93,1.15,1.15,0,0,0,1.24.85c2.4,0,4.8,0,7.21,0H78.17c.38,0,.8.14,1.07-.36,1-1.9,1-2.1-.57-3.65l-.53-.53q-9.63-10-19.24-20A1.16,1.16,0,0,1,58.69,71.74ZM81.07,98.87a3.87,3.87,0,0,0,3.74,4,3.93,3.93,0,0,0,4-3.79,4,4,0,0,0-3.87-4A3.91,3.91,0,0,0,81.07,98.87Z"/><path class="cls-2" d="M123.43,126.42c-.92,0-1.83,0-2.75,0H86.81a8.29,8.29,0,0,0,2.13-4c.1-.47.6-.23.9-.23h23.68c2.24,0,4.49,0,6.73,0,.17.09.39.15.48.29C121.65,123.8,122.53,125.11,123.43,126.42Z"/><path class="cls-3" d="M147.39,119.82c-.32,0-.65-.07-.63-.5,0-.81-.22-1.64.22-2.41a.6.6,0,0,0,.07-.63,3.72,3.72,0,0,1-.3-2.3q0-25.64,0-51.28a33.41,33.41,0,0,1,.36-3.43l.26,0Z"/><path class="cls-3" d="M115.28,99.94H116c0,.3.38.31.41.68a20.46,20.46,0,0,1-2.21.23q-11.09,0-22.17,0a1.56,1.56,0,0,1-1-.17,1.58,1.58,0,0,1,1.13-.2h22C114.61,100.48,115.21,100.7,115.28,99.94Z"/><path class="cls-3" d="M117.32,98.19c.05-.13.11-.25.16-.38a4,4,0,0,1,2-.33,1.6,1.6,0,0,1,1.37,2.09.51.51,0,0,1-.53.32c-.31,0-.63,0-.94,0-1.54,0-1.54,0-1.9-1.49A1,1,0,0,0,117.32,98.19Z"/><path class="cls-3" d="M140.5,79.73a1.83,1.83,0,0,1-.69,1.09c-2.56,2.41-5.18,4.76-7.62,7.31a19.08,19.08,0,0,1-1.69,1.49c-.14.11-.36.26-.5.07s.07-.3.21-.42c2.53-2.2,4.84-4.63,7.31-6.9C138.49,81.47,139.54,80.67,140.5,79.73Z"/><path class="cls-3" d="M118.26,110.71c-.25.2-.54.1-.82.1q-13.74,0-27.49,0c-.35,0-1.16.29-.65-.65,0,.71.6.52,1,.52h17Z"/><path class="cls-6" d="M120.17,64c-.08.61-.9.73-1.49,1.1s-.9,0-1.29-.26a.56.56,0,0,1-.21-.39c0-.89.8-1.09,1.37-1.46a1,1,0,0,1,1.37.05A1.08,1.08,0,0,1,120.17,64Z"/><path class="cls-6" d="M105.67,49.17c0,.78-.91,2-1.51,1.94a.9.9,0,0,1-.93-.88c0-.67.93-2,1.48-2A.89.89,0,0,1,105.67,49.17Z"/><path class="cls-6" d="M99.43,46.3c0,1-.75,2-1.33,2a.92.92,0,0,1-.93-1c0-.95.73-2.06,1.37-2A.93.93,0,0,1,99.43,46.3Z"/><path class="cls-6" d="M123.94,84.44c-.34,0-.7.06-1-.14a.9.9,0,0,1-.43-1.05c.21-.74.84-.73,1.44-.72s1.3-.06,1.53.74a.86.86,0,0,1-.43,1C124.7,84.52,124.3,84.41,123.94,84.44Z"/><path class="cls-6" d="M124,91.32c-1.33,0-2.09-.43-2.09-1.12a.89.89,0,0,1,1-1c1.18,0,2,.43,2,1.11A.89.89,0,0,1,124,91.32Z"/><path class="cls-6" d="M70.46,46.2a.88.88,0,0,1,.92-.88c.6,0,1.4,1.14,1.35,2a.93.93,0,0,1-.94,1C71.18,48.33,70.45,47.21,70.46,46.2Z"/><path class="cls-6" d="M123,77.76c-.62,0-1-.26-1.08-.82a.86.86,0,0,1,.65-1,6.63,6.63,0,0,1,1.39-.25c.54-.06.82.3.93.77a.84.84,0,0,1-.58,1.05A9.66,9.66,0,0,1,123,77.76Z"/><path class="cls-6" d="M65,48.26c.86,0,1,.58,1.32,1s.53.91.18,1.4a.88.88,0,0,1-1.08.36A2.61,2.61,0,0,1,64.24,49,.82.82,0,0,1,65,48.26Z"/><path class="cls-6" d="M109.67,55a.9.9,0,0,1-.92-.84,2.45,2.45,0,0,1,1.56-1.93.87.87,0,0,1,1,.78A2.41,2.41,0,0,1,109.67,55Z"/><path class="cls-6" d="M51.68,65.2c-.81,0-2-1-2-1.56a.92.92,0,0,1,1-.9c.71,0,1.86,1,1.85,1.5A.9.9,0,0,1,51.68,65.2Z"/><path class="cls-6" d="M46.86,89.24c.59,0,1,.17,1.11.74a.91.91,0,0,1-.74,1.13,6.64,6.64,0,0,1-1.21.2.9.9,0,0,1-1-.78.86.86,0,0,1,.7-1.06C46.11,89.35,46.51,89.3,46.86,89.24Z"/><path class="cls-6" d="M54.58,57.09a2.62,2.62,0,0,1,1.82,1.57.91.91,0,0,1-.86,1,2.54,2.54,0,0,1-1.89-1.63A.94.94,0,0,1,54.58,57.09Z"/><path class="cls-6" d="M46.88,77.74c-.42-.07-.8-.11-1.16-.21A.95.95,0,0,1,46,75.67a7.56,7.56,0,0,1,1.12.18c.61.13,1,.5.84,1.15A.91.91,0,0,1,46.88,77.74Z"/><path class="cls-6" d="M59.45,52.21a2.43,2.43,0,0,1,1.7,1.88.91.91,0,0,1-.93.88c-.59,0-1.69-1.19-1.67-1.84A.87.87,0,0,1,59.45,52.21Z"/><path class="cls-6" d="M92.72,44.87a10,10,0,0,1-.2,1,.88.88,0,0,1-1.09.66.87.87,0,0,1-.75-.95,5.6,5.6,0,0,1,.22-1.29.87.87,0,0,1,1.14-.7C92.6,43.71,92.8,44.11,92.72,44.87Z"/><path class="cls-6" d="M113.49,58.86a2.39,2.39,0,0,1,1.83-1.77.89.89,0,0,1,.9.91c0,.57-1.17,1.73-1.8,1.72A.86.86,0,0,1,113.49,58.86Z"/><path class="cls-6" d="M47.76,69c.93,0,2,.67,2,1.29a.89.89,0,0,1-.91,1c-.94,0-2-.7-2-1.34A.89.89,0,0,1,47.76,69Z"/><path class="cls-6" d="M122.26,69a.88.88,0,0,1,.84,1c0,.61-1.13,1.36-2,1.32a.89.89,0,0,1-.92-1C120.16,69.68,121.28,69,122.26,69Z"/><path class="cls-6" d="M121,95.7c1.13,0,2.07.68,2.05,1.33a.89.89,0,0,1-1,1c-1,0-1.9-.72-1.88-1.37A.84.84,0,0,1,121,95.7Z"/><path class="cls-6" d="M48.91,95.72a.85.85,0,0,1,.8,1c0,.6-1.08,1.32-2,1.29a.88.88,0,0,1-1-.94C46.79,96.38,47.84,95.68,48.91,95.72Z"/><path class="cls-6" d="M85.9,44.5c0,.43.1.92-.32,1.23a1,1,0,0,1-1.29,0,2.65,2.65,0,0,1-.07-2.43.92.92,0,0,1,1.28-.15C86,43.45,85.89,44,85.9,44.5Z"/><path class="cls-6" d="M77.14,44.75c0-.71.2-1.09.75-1.18a.87.87,0,0,1,1.08.68,5.68,5.68,0,0,1,.23,1.3.94.94,0,0,1-1.86.25C77.25,45.4,77.19,45,77.14,44.75Z"/><path class="cls-6" d="M45.9,84.4a6.53,6.53,0,0,1-.75,0,.86.86,0,0,1-.73-.65.8.8,0,0,1,.42-1,2.51,2.51,0,0,1,2.19,0,.81.81,0,0,1,.31,1.08C47.08,84.52,46.47,84.41,45.9,84.4Z"/><path class="cls-3" d="M111.24,105.25a2.2,2.2,0,0,1,1.23-1.2A2.06,2.06,0,0,1,111.24,105.25Z"/><path class="cls-7" d="M55.17,110.82H51.78A20.28,20.28,0,0,1,55.17,110.82Z"/><path class="cls-3" d="M145.83,115.53c.18.4.59.56.48,1a.15.15,0,0,1-.28.06C145.81,116.32,145.5,116.06,145.83,115.53Z"/><path class="cls-3" d="M146.18,117.49c0,.05.12.1.15.17s0,.25-.11.3-.15-.08-.18-.14A.26.26,0,0,1,146.18,117.49Z"/><path class="cls-3" d="M110.44,106.18c0,.17-.1.26-.23.25s-.13-.13-.12-.16a.3.3,0,0,1,.18-.18C110.31,106.07,110.39,106.15,110.44,106.18Z"/><path class="cls-7" d="M56.88,110.82h-.77A1,1,0,0,1,56.88,110.82Z"/><path class="cls-3" d="M129.53,89.86a.93.93,0,0,1,.11-.69A.77.77,0,0,1,129.53,89.86Z"/><path class="cls-3" d="M80,122.27l.4-.09Z"/><path class="cls-3" d="M85.31,125.13c-.06,0-.12.1-.18.15S85.24,125.18,85.31,125.13Z"/><path class="cls-3" d="M116.07,99.93l0-.06.07,0A.17.17,0,0,1,116.07,99.93Z"/><path class="cls-3" d="M116.49,99.73s.08-.1.13-.15S116.54,99.69,116.49,99.73Z"/><path class="cls-8" d="M55.29,68.32a14.58,14.58,0,0,1,2.62-4.45c5.44-7.33,12.66-12,21.69-13.27,13.52-1.92,24.47,2.74,32.66,13.7a31.47,31.47,0,0,1,5.94,15,33.4,33.4,0,0,1-2.67,18.21.83.83,0,0,1-.87.56Q103,98,91.34,98a.76.76,0,0,1-.87-.64,5.73,5.73,0,0,0-8.26-3.51.74.74,0,0,1-1.05-.2C79.44,91.87,77.7,90.09,76,88.3q-7.69-8-15.38-16a1.51,1.51,0,0,0-1.91-.52Zm21.31-2.51c-.34,0-.7,0-1,0-.58,0-1,0-1,.8s.34.92,1,.85a5.74,5.74,0,0,1,.66,0c.39,0,.72.12.76.54s.19.85-.31,1.18a2.9,2.9,0,0,1-4.35-1.61A3.11,3.11,0,0,1,73,64.32,2.84,2.84,0,0,1,76.39,64c.89.48,1.29-.14,1.58-.65s-.42-.75-.77-.93a5.46,5.46,0,0,0-5.62.57,5,5,0,0,0-1.33,5.29c.71,2.09,2.31,3,5,3,2.54-.07,3.39-.9,3.4-3.38C78.67,65.82,78.67,65.82,76.61,65.81Zm8.77,3.74h1.7c.38,0,.77.1.82.5.17,1.2,1,1,1.85,1s.79-.23.51-.82c-1-2.18-2-4.37-2.94-6.55-.75-1.71-.75-1.7-2.58-1.54a.63.63,0,0,0-.63.42q-1.77,4-3.56,7.92c-.08.17-.2.34,0,.5.42.35,2.12,0,2.29-.58a1.16,1.16,0,0,1,1.42-.9A11,11,0,0,0,85.37,69.55Zm10.49,1.72a9.87,9.87,0,0,0,1.23,0,2.89,2.89,0,0,0,2.76-2.41A2.62,2.62,0,0,0,98,66a9.81,9.81,0,0,0-2.4-.47c-.55,0-1-.32-1-.93s.48-.87,1-.92a4.24,4.24,0,0,1,2.22.28c.76.35.89-.43,1.15-.81s-.21-.56-.49-.69a5.74,5.74,0,0,0-4.34-.17,2.35,2.35,0,0,0-1.75,2.51,2.33,2.33,0,0,0,2.1,2.29c.71.16,1.43.24,2.14.37s1.08.34,1.09,1-.52.89-1.07,1A3.7,3.7,0,0,1,93.9,69c-.84-.53-1.12.14-1.45.62s.23.74.54,1A4.06,4.06,0,0,0,95.87,71.27Z"/><path class="cls-9" d="M55.29,68.32l3.4,3.42a1.16,1.16,0,0,0,.22,1.6q9.64,10,19.24,20l.53.53c1.54,1.55,1.57,1.75.57,3.65-.27.5-.69.36-1.07.36H62.73c-2.4,0-4.81,0-7.21,0a1.15,1.15,0,0,1-1.24-.85,33.1,33.1,0,0,1-2.61-16.93A29.68,29.68,0,0,1,55.29,68.32Z"/><path class="cls-3" d="M81.07,98.87A3.91,3.91,0,0,1,85,95.05a4,4,0,0,1,3.87,4,3.93,3.93,0,0,1-4,3.79A3.87,3.87,0,0,1,81.07,98.87Zm6,.1a2.12,2.12,0,0,0-2.13-2.09A2.08,2.08,0,1,0,87,99Z"/><path class="cls-6" d="M76.61,65.81c2.07,0,2.07,0,2.06,2.1,0,2.47-.85,3.31-3.4,3.38-2.7.08-4.31-.88-5-3A5,5,0,0,1,71.58,63a5.46,5.46,0,0,1,5.62-.57c.34.19,1.1.34.77.93s-.69,1.13-1.58.65a2.84,2.84,0,0,0-3.36.29,3.11,3.11,0,0,0-.76,3.25,2.9,2.9,0,0,0,4.35,1.61c.5-.33.34-.78.31-1.18s-.37-.55-.76-.54a5.74,5.74,0,0,0-.66,0c-.64.07-1-.08-1-.85s.45-.83,1-.8C75.91,65.83,76.26,65.81,76.61,65.81Z"/><path class="cls-6" d="M85.37,69.55a11,11,0,0,1-1.14,0,1.16,1.16,0,0,0-1.42.9c-.17.54-1.87.94-2.29.58-.19-.16-.07-.34,0-.5q1.79-4,3.56-7.92a.63.63,0,0,1,.63-.42c1.83-.17,1.83-.17,2.58,1.54,1,2.18,1.95,4.37,2.94,6.55.28.6.21.85-.51.82s-1.68.15-1.85-1c-.05-.4-.43-.5-.82-.5Zm.08-1.72c1.43,0,1.53-.1,1-1.43-.25-.6-.23-1.63-1-1.61s-.69,1-.95,1.6C83.89,67.69,84,67.82,85.45,67.84Z"/><path class="cls-6" d="M95.87,71.27A4.06,4.06,0,0,1,93,70.6c-.31-.22-.94-.37-.54-1s.61-1.15,1.45-.62a3.7,3.7,0,0,0,2.72.47c.55-.1,1.1-.32,1.07-1s-.53-.88-1.09-1-1.44-.21-2.14-.37a2.33,2.33,0,0,1-2.1-2.29,2.35,2.35,0,0,1,1.75-2.51,5.74,5.74,0,0,1,4.34.17c.27.13.8.24.49.69s-.39,1.15-1.15.81a4.24,4.24,0,0,0-2.22-.28c-.53.05-1,.28-1,.92s.44.89,1,.93A9.81,9.81,0,0,1,98,66a2.62,2.62,0,0,1,1.9,2.8,2.89,2.89,0,0,1-2.76,2.41A9.87,9.87,0,0,1,95.87,71.27Z"/><path class="cls-6" d="M87,99a2.09,2.09,0,1,1-2.13-2.09A2.12,2.12,0,0,1,87,99Z"/><path class="cls-10" d="M85.45,67.84c-1.44,0-1.56-.15-1-1.45.26-.58.28-1.58.95-1.6s.75,1,1,1.61C87,67.73,86.88,67.85,85.45,67.84Z"/></g></g></svg>