<svg xmlns="http://www.w3.org/2000/svg" viewBox="0 0 170.6 170.61"><defs><style>.cls-1{fill:#eee8df;}.cls-2{fill-rule:evenodd;}</style></defs><title>Recurso 3ldpi</title><g id="Capa_2" data-name="Capa 2"><g id="Capa_1-2" data-name="Capa 1"><circle class="cls-1" cx="85.3" cy="85.3" r="85.3"/><path class="cls-2" d="M57.88,117.9H17.4c-1,0-1.93,0-2.89,0-2.85.05-4.55-1.47-4.53-4.18s1.89-4.18,4.63-4.17c9.62,0,19.24.1,28.85.16,2.47,0,5,0,7.42.1,5.39.33,9.65-.3,13.74-5.26C71.14,96.65,84,98.47,91,107a7.66,7.66,0,0,0,4.1,2.64c3.13.57,4.78-.79,4.49-4.37a73.66,73.66,0,0,1,0-10.71c.21-3.33-.84-4.47-4.36-4.49-11-.09-22-.64-33-1a17.13,17.13,0,0,1-14.57-7.88c-4.1-6-8.48-11.83-12.61-17.83-2.13-3.1-4.71-4.68-8.6-4.31-3.55.34-7.15.11-10.71.3-3,.16-5.47-.56-5.73-3.84S12,51,15.05,51c4.67-.08,9.34-.28,14-.39a11.87,11.87,0,0,1,10.38,4.84c3.07,4,6.17,8.06,9.46,12.38L74.37,38c1.17-1.36,2.32-2.71,3.47-4.09,2-2.35,4.22-4.67,7.21-2.06s1.26,5.33-.87,7.81C78.07,46.74,72,53.86,66,61L54.07,74.85c1.64,4,4.65,5.79,8.9,5.9,11.26.29,22.52.72,33.78,1,7.6.17,11.1,3.53,11.14,11.06,0,5.09.08,10.17,0,15.26-.12,6-3.36,9.35-9.33,9.87-1.92.16-3.51,0-4.15,2.77-2.33,10-9.07,15.57-18.06,15.44S60.67,130,58.51,119.81C58.42,119.43,58.26,119.05,57.88,117.9Zm18.48-9.54a9.65,9.65,0,0,0-9.35,10,9.89,9.89,0,0,0,9.59,9.41,10.19,10.19,0,0,0,9.65-9.84A9.88,9.88,0,0,0,76.36,108.36Z"/><path class="cls-2" d="M111.82,57.74c-1.05-4-.82-7.31,3-9.16s6.46.2,8.93,2.93c6.88,7.67,14,15.13,20.69,22.94a12.53,12.53,0,0,1,3.06,7.25q.41,22,0,44.06c0,2.33-1.12,5.4-2.81,6.78-4.08,3.33-9.54.16-9.62-5.45-.18-13.46,0-26.93-.28-40.38a10.65,10.65,0,0,0-2.24-6.19C128,75,123.17,69.79,118.22,64.65a4.49,4.49,0,0,0-4-.72c-7,2.78-13.86,6-20.89,8.68-1.16.44-3-.82-4.48-1.29A30.94,30.94,0,0,1,90.88,67c.37-.57,1.47-.65,2.21-1C99.25,63.3,105.4,60.58,111.82,57.74Z"/><path class="cls-2" d="M106,44.71a9.45,9.45,0,0,1-9.8-9.82,9.3,9.3,0,0,1,9.69-9.44A9.63,9.63,0,1,1,106,44.71Z"/></g></g></svg>