<svg xmlns="http://www.w3.org/2000/svg" viewBox="0 0 170.6 170.61"><defs><style>.cls-1{fill:#eee8df;}.cls-2{fill-rule:evenodd;}</style></defs><title>Recurso 1ldpi</title><g id="Capa_2" data-name="Capa 2"><g id="Capa_1-2" data-name="Capa 1"><circle class="cls-1" cx="85.3" cy="85.31" r="85.3"/><path class="cls-2" d="M50.18,136.92c-.57-.45-2-1.09-2.48-2.15a4.34,4.34,0,0,1,.53-3.64,58.8,58.8,0,0,1,4.91-5c2.63-2.72,2.69-5.32-.21-8-6.2-5.78-7.93-5.73-13.44.73-.21.24-.39.49-.6.71-1.91,1.85-3.5,5.16-6.8,2.41-3.08-2.55-.74-5,.72-7.33C37,107.93,42.1,103,50.68,102.1c2.85-.29,5.88-2.7,8.08-4.9C72,84,85.19,70.86,97.85,57.16,100.75,54,102.33,49,103,44.61c1.27-8.55,7.86-11.88,13.86-15.88.8-.53,3.34.16,3.92,1a4.84,4.84,0,0,1,0,4.36c-1.34,2-3.45,3.54-5.14,5.36-2.32,2.5-2.13,4.94.27,7.36,6,6.09,8.08,6,13.9-.46,1.87-2.06,3.45-6.37,7.25-3.19s-.11,5.48-1.64,7.9c-4,6.37-8.72,11.57-17.09,12-1.86.08-3.94,1.76-5.39,3.24C98.66,80.67,84.3,94.91,70.59,109.76c-3,3.21-3.72,8.63-5.07,13.16S54.85,136.78,50.18,136.92Z"/><path class="cls-2" d="M96.36,93.81l2.76-3c4.51,2.21,8.23,4,11.89,5.87a11.26,11.26,0,0,1,3,2.18c6.76,7.07,13.54,14.12,20.17,21.32,3.18,3.44,3.07,7.61.08,10.4s-7.16,2.81-10.41-.52c-7.06-7.22-13.95-14.59-20.88-21.93a7.94,7.94,0,0,1-1.48-2.32C99.87,102.18,98.34,98.49,96.36,93.81Z"/><path class="cls-2" d="M77.87,66.21l-5.15,5C66.54,64.67,60.5,58.48,54.78,52c-.85-.95-.17-3.24-.21-4.91,1.81.06,4.35-.63,5.3.3C66,53.35,71.69,59.67,77.87,66.21Z"/></g></g></svg>